# xmcd
#
# Track frame offsets:
#	150
#	22524
#	40530
#	55360
#	77192
#	96818
#	120687
#	140291
#	161274
#	193860
#	206405
#	223740
#	254986
#
# Disc length: 3407 seconds
#
# Revision: 0
# Processed by: cddbd v1.5.1PL0 Copyright (c) Steve Scherf et al.
# Submitted via: dBpowerAMP V4.0
#
DISCID=b10d4d0d
DTITLE=Stephens and John - #1
DYEAR=2004
DGENRE=Acoustic
TTITLE0=Stephens and John - Patience
TTITLE1=Stephens and John - Wish You Were Here
TTITLE2=Stephens and John - Man Who Sold The World
TTITLE3=Stephens and John - The Scientist
TTITLE4=Stephens and John - Yellow
TTITLE5=Stephens and John - Rush Of Blood To The Head
TTITLE6=Stephens and John - Warning Sign
TTITLE7=Stephens and John - Tuesdays Gone
TTITLE8=Stephens and John - Stairway To Heaven
TTITLE9=Stephens and John - Better Man
TTITLE10=Stephens and John - Take It Easy
TTITLE11=Stephens and John - When You Say Nothing At All
TTITLE12=DATA
EXTD=
EXTT0=
EXTT1=
EXTT2=
EXTT3=
EXTT4=
EXTT5=
EXTT6=
EXTT7=
EXTT8=
EXTT9=
EXTT10=
EXTT11=
EXTT12=
PLAYORDER=
